<?xml version="1.0" encoding="UTF-8" standalone="no"?>
<!-- Created with Inkscape (http://www.inkscape.org/) -->

<svg
   width="83.428902mm"
   height="99.218742mm"
   viewBox="0 0 83.428902 99.218742"
   version="1.1"
   id="svg21583"
   xmlns="http://www.w3.org/2000/svg"
   xmlns:svg="http://www.w3.org/2000/svg">
  <defs
     id="defs21580" />
  <g
     id="layer1"
     transform="translate(-57.285548,-82.986295)">
    <g
       id="g21353"
       transform="translate(34.583469,64.612741)"
       style="display:inline">
      <path
         id="text3520"
         style="font-style:normal;font-variant:normal;font-weight:normal;font-stretch:normal;font-size:140.858px;line-height:1.25;font-family:Ubuntu;-inkscape-font-specification:'Ubuntu, Normal';font-variant-ligatures:normal;font-variant-caps:normal;font-variant-numeric:normal;font-variant-east-asian:normal;white-space:pre;inline-size:0;fill:#ff003e;fill-opacity:1;stroke:none;stroke-width:1.0708"
         d="m 230.37305,69.443359 c -7.47034,0 -15.4742,0.177143 -24.01172,0.53125 -8.53753,0.354108 -17.25323,0.885536 -26.14649,1.59375 -8.53752,0.708215 -17.0738,1.593929 -25.61132,2.65625 -8.53753,1.062322 -16.36392,2.479464 -23.47852,4.25 v 75.566411 h 51.22461 V 114.5918 c 6.04741,-0.70822 12.80701,-1.23769 20.27734,-1.5918 7.47034,-0.35411 17.7872,-0.53125 30.94922,-0.53125 13.16202,0 25.61247,1.0609 37.35156,3.18555 11.7391,2.12464 21.87654,5.49035 30.41407,10.09375 8.89325,4.24928 15.83032,10.09109 20.81054,17.52734 4.98023,7.08215 7.47071,15.93538 7.47071,26.55859 0,11.33144 -2.49048,20.71414 -7.47071,28.1504 -4.62449,7.43625 -11.20661,13.45715 -19.74414,18.06054 -8.18179,4.6034 -17.96429,7.79001 -29.34765,9.56055 -6.78184,1.05483 -13.82054,1.78845 -21.10743,2.21484 v 41.89844 c 13.78674,0.13017 26.34856,1.17481 37.6504,3.16016 12.09482,2.12464 22.40974,5.66554 30.94726,10.62304 8.89326,4.9575 15.65285,11.68502 20.27734,20.1836 4.6245,8.14446 6.9375,18.23769 6.9375,30.27734 10e-6,13.45608 -3.20232,24.61021 -9.60546,33.46289 -6.04742,8.85268 -14.22875,15.75734 -24.54493,20.71484 -10.31617,4.95751 -22.41167,8.49841 -36.28515,10.62305 -13.51775,1.77054 -27.92431,2.65625 -43.2207,2.65625 h -21.87696 c -6.04741,-0.35411 -11.38332,-0.70839 -16.00781,-1.0625 -5.33595,-0.35411 -9.96197,-0.70839 -13.875,-1.0625 V 343.92578 H 131.125 v 91.48828 c 7.1146,1.77054 14.94099,3.18768 23.47852,4.25 8.53752,1.06232 17.0738,1.94608 25.61132,2.6543 8.89326,0.70821 17.60896,1.23964 26.14649,1.59375 8.89325,0.35411 17.07654,0.53125 24.54687,0.53125 59.05122,0 102.09341,-9.20556 129.12891,-27.61914 27.39123,-18.76769 41.08789,-46.56542 41.08789,-83.39258 0,-25.14162 -6.40465,-44.61755 -19.21094,-58.42773 -12.80629,-13.81019 -30.05827,-23.90342 -51.75781,-30.27735 16.00786,-6.37393 28.81325,-15.93378 38.41797,-28.68164 9.60471,-13.10197 14.4082,-29.74557 14.4082,-49.92969 0,-18.05947 -3.91417,-33.28593 -11.74023,-45.67968 -7.82607,-12.39376 -18.67535,-22.307891 -32.54883,-29.744144 -13.51775,-7.79036 -29.70294,-13.279831 -48.55664,-16.466797 -18.49797,-3.186965 -38.41986,-4.78125 -59.76367,-4.78125 z"
         transform="scale(0.26458332)" />
      <path
         d="m 47.822425,72.156864 h 10.20863 a 2.3585215,2.3585215 0 0 0 2.351546,-2.351538 V 61.955217 A 2.3585215,2.3585215 0 0 0 58.031055,59.596694 H 47.822425 V 49.39504 a 2.3585215,2.3585215 0 0 0 -2.351542,-2.358519 h -7.850109 a 2.3585215,2.3585215 0 0 0 -2.358521,2.358519 v 10.201654 h -10.20863 a 2.3585215,2.3585215 0 0 0 -2.351544,2.358523 v 7.850109 a 2.3585215,2.3585215 0 0 0 2.351544,2.351538 h 10.20863 v 10.208634 a 2.3585215,2.3585215 0 0 0 2.351544,2.351542 h 7.850108 a 2.3585215,2.3585215 0 0 0 2.35852,-2.351542 z"
         style="fill:#ff003e;fill-opacity:1;stroke-width:0.697788"
         id="path19258" />
    </g>
  </g>
</svg>
